<svg width="24" height="24" viewBox="0 0 24 24" fill="none" xmlns="http://www.w3.org/2000/svg">
<path d="M12.4627 16.2627C12.188 16.5375 11.7429 16.5374 11.4684 16.2627L8.45598 13.2502C8.18132 12.9758 8.18132 12.5305 8.45598 12.256C8.73045 11.9813 9.17558 11.9813 9.45024 12.256L11.2624 14.0682V8.98755C11.2624 8.59918 11.5774 8.28442 11.9656 8.28442C12.3539 8.28442 12.6687 8.59918 12.6687 8.98755V14.0682L14.4809 12.256C14.7555 11.9813 15.2007 11.9813 15.4753 12.256C15.7498 12.5305 15.7498 12.9758 15.4753 13.2502L12.4627 16.2627Z" fill="white"/>
<path d="M8.95315 18.0751H14.9782C15.3664 18.0751 15.6814 18.3898 15.6814 18.7782C15.6814 19.1664 15.3664 19.4813 14.9782 19.4813H8.95315C8.56497 19.4813 8.25003 19.1664 8.25003 18.7782C8.25003 18.3898 8.56478 18.0751 8.95315 18.0751Z" fill="white"/>
<path d="M5.18756 0H15.7313C15.9177 0 16.0966 0.0741577 16.2285 0.205994L20.7471 4.72467C20.879 4.85651 20.9531 5.0354 20.9531 5.2218V21.7906C20.9531 23.0089 19.962 24 18.7438 24H5.18756C3.97284 24 2.97821 23.0178 2.97821 21.7906V2.20935C2.97821 0.994629 3.96021 0 5.18756 0ZM15.6813 1.6474V4.46869C15.6813 4.91162 16.0415 5.27179 16.4844 5.27179H19.3057L15.6813 1.6474ZM4.38446 21.7906C4.38446 22.2281 4.73804 22.5938 5.18756 22.5938H18.7438C19.1865 22.5938 19.5469 22.2334 19.5469 21.7906V6.67822H16.4844C15.2662 6.67822 14.2751 5.68707 14.2751 4.46887V1.40625H5.18756C4.74994 1.40625 4.38446 1.76001 4.38446 2.20935V21.7906Z" fill="white"/>
</svg>
