<svg width="28" height="28" viewBox="0 0 28 28" fill="none" xmlns="http://www.w3.org/2000/svg">
<path d="M20.4206 0H7.57933C3.40002 0 0 3.40002 0 7.57933V20.4208C0 24.5999 3.40002 27.9999 7.57933 27.9999H20.4208C24.5999 27.9999 27.9999 24.5999 27.9999 20.4208V7.57933C27.9999 3.40002 24.5999 0 20.4206 0V0ZM14 21.656C9.77836 21.656 6.34395 18.2216 6.34395 14C6.34395 9.77836 9.77836 6.34395 14 6.34395C18.2216 6.34395 21.656 9.77836 21.656 14C21.656 18.2216 18.2216 21.656 14 21.656ZM21.8391 8.14949C20.5915 8.14949 19.5768 7.13478 19.5768 5.88723C19.5768 4.63967 20.5915 3.62475 21.8391 3.62475C23.0866 3.62475 24.1015 4.63967 24.1015 5.88723C24.1015 7.13478 23.0866 8.14949 21.8391 8.14949Z" fill="white"/>
<path d="M14 7.98535C10.6837 7.98535 7.98547 10.6834 7.98547 13.9999C7.98547 17.3162 10.6837 20.0144 14 20.0144C17.3165 20.0144 20.0146 17.3162 20.0146 13.9999C20.0146 10.6834 17.3165 7.98535 14 7.98535Z" fill="white"/>
<path d="M21.839 5.2666C21.4968 5.2666 21.2183 5.54517 21.2183 5.88739C21.2183 6.22961 21.4968 6.50818 21.839 6.50818C22.1815 6.50818 22.4601 6.22983 22.4601 5.88739C22.4601 5.54495 22.1815 5.2666 21.839 5.2666Z" fill="white"/>
</svg>
