<svg width="24" height="24" viewBox="0 0 24 24" fill="none" xmlns="http://www.w3.org/2000/svg">
<path d="M4.51022 7.286L11.1769 11.315C11.4009 11.45 11.6907 11.514 11.9822 11.514C12.2738 11.514 12.5636 11.45 12.7876 11.315L19.4542 7.286C19.8889 7.023 20.2996 6 19.5022 6H4.46311C3.66578 6 4.07645 7.023 4.51022 7.286ZM19.656 9.489L12.7876 13.516C12.4853 13.694 12.2738 13.715 11.9822 13.715C11.6907 13.715 11.4791 13.694 11.1769 13.516C10.8747 13.338 4.83645 9.777 4.34311 9.488C3.99645 9.284 4 9.523 4 9.707V17C4 17.42 4.50311 18 4.88889 18H19.1111C19.4969 18 20 17.42 20 17V9.708C20 9.524 20.0036 9.285 19.656 9.489Z" fill="white"/>
</svg>
