<svg width="32" height="32" viewBox="0 0 32 32" fill="none" xmlns="http://www.w3.org/2000/svg">
<path d="M22.5715 15.9342L18.0482 7.59593C18.026 7.5549 17.9844 7.52942 17.9396 7.52942H14.0604C14.0157 7.52942 13.974 7.5549 13.9517 7.59593L9.42843 15.9342C9.40618 15.9749 9.40618 16.0252 9.42843 16.0659L13.9517 24.4041C13.9546 24.409 13.9574 24.414 13.9605 24.4183C13.9605 24.4186 13.9608 24.4186 13.9608 24.4186C13.9708 24.4325 13.9834 24.4438 13.9971 24.4524C14.0119 24.4617 14.0281 24.4673 14.0454 24.4693C14.0504 24.4703 14.0554 24.4706 14.0604 24.4706H17.9396C17.9843 24.4706 18.026 24.4451 18.0482 24.4041L22.5715 16.0659C22.5938 16.0252 22.5938 15.9749 22.5715 15.9342ZM13.7344 16.0625C13.7147 16.0235 13.7147 15.9765 13.7344 15.9375L16 11.4845L18.2656 15.9375C18.2853 15.9765 18.2853 16.0235 18.2656 16.0625L16 20.5156L13.7344 16.0625Z" fill="#FF7715"/>
</svg>
