<svg width="110" height="110" viewBox="0 0 110 110" fill="none" xmlns="http://www.w3.org/2000/svg">
<path d="M45.8333 75.6248L73.3333 54.9998L45.8333 34.3748V75.6248ZM55 9.1665C29.7 9.1665 9.16663 29.6998 9.16663 54.9998C9.16663 80.2999 29.7 100.833 55 100.833C80.3 100.833 100.833 80.2999 100.833 54.9998C100.833 29.6998 80.3 9.1665 55 9.1665ZM55 91.6665C34.7875 91.6665 18.3333 75.2123 18.3333 54.9998C18.3333 34.7873 34.7875 18.3332 55 18.3332C75.2125 18.3332 91.6666 34.7873 91.6666 54.9998C91.6666 75.2123 75.2125 91.6665 55 91.6665Z" fill="white"/>
</svg>
