<svg width="74" height="74" viewBox="0 0 74 74" fill="none" xmlns="http://www.w3.org/2000/svg">
<path d="M30.8333 50.8748L49.3333 36.9998L30.8333 23.1248V50.8748ZM37 6.1665C19.98 6.1665 6.16663 19.9798 6.16663 36.9998C6.16663 54.0198 19.98 67.8332 37 67.8332C54.02 67.8332 67.8333 54.0198 67.8333 36.9998C67.8333 19.9798 54.02 6.1665 37 6.1665ZM37 61.6665C23.4025 61.6665 12.3333 50.5973 12.3333 36.9998C12.3333 23.4023 23.4025 12.3332 37 12.3332C50.5975 12.3332 61.6666 23.4023 61.6666 36.9998C61.6666 50.5973 50.5975 61.6665 37 61.6665Z" fill="white"/>
</svg>
